# MagicaVoxel @ Ephtracy

# group
o 

# material
mtllib BlueTank.mtl
usemtl palette

# normals
vn -1 0 0
vn 1 0 0
vn 0 0 1
vn 0 0 -1
vn 0 -1 0
vn 0 1 0

# texcoords
vt 0.822266 0.5
vt 0.833984 0.5
vt 0.837891 0.5
vt 0.849609 0.5
vt 0.865234 0.5

# verts
v 1.5 2 -1.2
v 1.5 2 -2.4
v 1.5 2.1 -1.3
v 1.5 2.1 -2.3
v 1.5 2.2 -1.3
v 1.5 2.2 -2.3
v 1.5 2.3 -1.2
v 1.5 2.3 -2.4
v 1.7 2.3 -1.3
v 1.7 2.3 -2.3
v 1.7 2.6 -1.3
v 1.7 2.6 -2.3
v 2.3 2 -1.2
v 2.3 2 -2.4
v 2.3 2.3 -1.2
v 2.3 2.3 -1.3
v 2.3 2.3 -2.3
v 2.3 2.3 -2.4
v 1.8 2 -1.2
v 1.8 2 -2.4
v 1.8 2.3 -1.2
v 1.8 2.3 -1.3
v 1.8 2.3 -2.3
v 1.8 2.3 -2.4
v 2.4 2.3 -1.3
v 2.4 2.3 -2.3
v 2.4 2.6 -1.3
v 2.4 2.6 -2.3
v 2.6 2 -1.2
v 2.6 2 -2.4
v 2.6 2.1 -1.3
v 2.6 2.1 -2.3
v 2.6 2.2 -1.3
v 2.6 2.2 -2.3
v 2.6 2.3 -1.2
v 2.6 2.3 -2.4
v 1.5 2 -1.2
v 1.5 2.3 -1.2
v 1.8 2 -1.2
v 1.8 2.3 -1.2
v 2.3 2 -1.2
v 2.3 2.3 -1.2
v 2.6 2 -1.2
v 2.6 2.3 -1.2
v 1.7 2.3 -1.3
v 1.7 2.6 -1.3
v 1.8 2.3 -1.3
v 2.3 2.3 -1.3
v 2.4 2.3 -1.3
v 2.4 2.6 -1.3
v 1.7 2.3 -2.3
v 1.7 2.6 -2.3
v 1.8 2.3 -2.3
v 2.3 2.3 -2.3
v 2.4 2.3 -2.3
v 2.4 2.6 -2.3
v 1.5 2 -2.4
v 1.5 2.3 -2.4
v 1.8 2 -2.4
v 1.8 2.3 -2.4
v 2.3 2 -2.4
v 2.3 2.3 -2.4
v 2.6 2 -2.4
v 2.6 2.3 -2.4
v 1.5 2 -1.2
v 1.8 2 -1.2
v 2.3 2 -1.2
v 2.6 2 -1.2
v 1.5 2 -2.4
v 1.8 2 -2.4
v 2.3 2 -2.4
v 2.6 2 -2.4
v 1.8 2.3 -1.3
v 2.3 2.3 -1.3
v 1.8 2.3 -2.3
v 2.3 2.3 -2.3
v 1.5 2.3 -1.2
v 1.8 2.3 -1.2
v 2.3 2.3 -1.2
v 2.6 2.3 -1.2
v 1.7 2.3 -1.3
v 1.8 2.3 -1.3
v 2.3 2.3 -1.3
v 2.4 2.3 -1.3
v 1.7 2.3 -2.3
v 1.8 2.3 -2.3
v 2.3 2.3 -2.3
v 2.4 2.3 -2.3
v 1.5 2.3 -2.4
v 1.8 2.3 -2.4
v 2.3 2.3 -2.4
v 2.6 2.3 -2.4
v 1.7 2.6 -1.3
v 2.4 2.6 -1.3
v 1.7 2.6 -2.3
v 2.4 2.6 -2.3

# faces
f 3/2/1 2/2/1 1/2/1
f 4/2/1 2/2/1 3/2/1
f 5/2/1 3/2/1 1/2/1
f 5/3/1 4/3/1 3/3/1
f 6/2/1 2/2/1 4/2/1
f 6/3/1 4/3/1 5/3/1
f 7/2/1 5/2/1 1/2/1
f 7/2/1 6/2/1 5/2/1
f 8/2/1 2/2/1 6/2/1
f 8/2/1 6/2/1 7/2/1
f 11/1/1 10/1/1 9/1/1
f 12/1/1 10/1/1 11/1/1
f 15/2/1 14/2/1 13/2/1
f 16/2/1 14/2/1 15/2/1
f 17/2/1 14/2/1 16/2/1
f 18/2/1 14/2/1 17/2/1
f 19/2/2 20/2/2 21/2/2
f 21/2/2 20/2/2 22/2/2
f 22/2/2 20/2/2 23/2/2
f 23/2/2 20/2/2 24/2/2
f 25/1/2 26/1/2 27/1/2
f 27/1/2 26/1/2 28/1/2
f 29/2/2 30/2/2 31/2/2
f 31/2/2 30/2/2 32/2/2
f 29/2/2 31/2/2 33/2/2
f 31/3/2 32/3/2 33/3/2
f 32/2/2 30/2/2 34/2/2
f 33/3/2 32/3/2 34/3/2
f 29/2/2 33/2/2 35/2/2
f 33/2/2 34/2/2 35/2/2
f 34/2/2 30/2/2 36/2/2
f 35/2/2 34/2/2 36/2/2
f 39/2/3 38/2/3 37/2/3
f 40/2/3 38/2/3 39/2/3
f 43/2/3 42/2/3 41/2/3
f 44/2/3 42/2/3 43/2/3
f 47/1/3 46/1/3 45/1/3
f 48/1/3 46/1/3 47/1/3
f 49/1/3 46/1/3 48/1/3
f 50/1/3 46/1/3 49/1/3
f 51/1/4 52/1/4 53/1/4
f 53/1/4 52/1/4 54/1/4
f 54/1/4 52/1/4 55/1/4
f 55/1/4 52/1/4 56/1/4
f 57/2/4 58/2/4 59/2/4
f 59/2/4 58/2/4 60/2/4
f 61/2/4 62/2/4 63/2/4
f 63/2/4 62/2/4 64/2/4
f 69/2/5 66/2/5 65/2/5
f 70/2/5 66/2/5 69/2/5
f 71/2/5 68/2/5 67/2/5
f 72/2/5 68/2/5 71/2/5
f 75/1/5 74/1/5 73/1/5
f 76/1/5 74/1/5 75/1/5
f 77/2/6 78/2/6 81/2/6
f 81/2/6 78/2/6 82/2/6
f 79/2/6 80/2/6 83/2/6
f 83/2/6 80/2/6 84/2/6
f 77/2/6 81/2/6 85/2/6
f 84/2/6 80/2/6 88/2/6
f 85/2/6 86/2/6 89/2/6
f 77/2/6 85/2/6 89/2/6
f 89/2/6 86/2/6 90/2/6
f 87/2/6 88/2/6 91/2/6
f 88/2/6 80/2/6 92/2/6
f 91/2/6 88/2/6 92/2/6
f 93/1/6 94/1/6 95/1/6
f 95/1/6 94/1/6 96/1/6
