# 3ds Max Wavefront OBJ Exporter v0.97b - (c)2007 guruware
# File Created: 09.11.2019 19:33:13

mtllib BlueTankCannon2.mtl

#
# object default
#

v  1.9000 2.7000 -1.7000
v  1.9000 2.0000 -1.9000
v  1.9000 2.0000 -1.7000
v  1.9000 2.7000 -1.9000
v  1.9000 2.8000 -1.7000
v  1.9000 2.8000 -1.9000
v  2.1000 2.0000 -1.7000
v  2.1000 2.0000 -1.9000
v  2.1000 2.7000 -1.7000
v  2.1000 2.7000 -1.9000
v  2.1000 2.8000 -1.7000
v  2.1000 2.8000 -1.9000
# 12 vertices

vn -1.0000 0.0000 -0.0000
vn 1.0000 0.0000 -0.0000
vn 0.0000 0.0000 1.0000
vn 0.0000 0.0000 -1.0000
vn 0.0000 -1.0000 -0.0000
vn 0.0000 1.0000 -0.0000
# 6 vertex normals

vt 0.8301 0.5000 0.0000
vt 0.8379 0.5000 0.0000
# 2 texture coords

g default
usemtl _BlueTankCannonpalette
s 1
f 1/1/1 2/1/1 3/1/1 
f 4/1/1 2/1/1 1/1/1 
f 5/2/1 4/2/1 1/2/1 
f 6/2/1 4/2/1 5/2/1 
f 7/1/2 8/1/2 9/1/2 
f 9/1/2 8/1/2 10/1/2 
f 9/2/2 10/2/2 11/2/2 
f 11/2/2 10/2/2 12/2/2 
f 7/1/3 1/1/3 3/1/3 
f 9/2/3 5/2/3 1/2/3 
f 9/1/3 1/1/3 7/1/3 
f 11/2/3 5/2/3 9/2/3 
f 2/1/4 4/1/4 8/1/4 
f 4/2/4 6/2/4 10/2/4 
f 8/1/4 4/1/4 10/1/4 
f 10/2/4 6/2/4 12/2/4 
f 2/1/5 7/1/5 3/1/5 
f 8/1/5 7/1/5 2/1/5 
f 5/2/6 11/2/6 6/2/6 
f 6/2/6 11/2/6 12/2/6 
# 0 polygons - 20 triangles

